<svg width="33" height="54" viewBox="0 0 33 54" fill="none" xmlns="http://www.w3.org/2000/svg">
<g id="airpods_2gen_light__ckwbqlgv1r9e_large.svg" clip-path="url(#clip0_1_23)">
<path id="Vector" d="M7.94278 17.7111C5.20198 17.8111 3.30928 19.5776 1.68998 21.3021C0.965879 22.0732 1.14188 22.6421 1.14188 24.2473C1.14188 26.42 1.09468 26.6807 1.71508 27.6162C2.37076 28.6899 3.28334 29.5835 4.37053 30.2165C5.45773 30.8495 6.68537 31.202 7.94278 31.2422C12.1156 31.5639 15.7169 28.2212 15.7169 24.4847C15.7169 20.7482 12.1248 17.5585 7.94278 17.7111ZM4.14478 26.5455C4.14478 26.7277 4.0724 26.9024 3.94356 27.0313C3.81472 27.1601 3.63998 27.2325 3.45778 27.2325C3.27557 27.2325 3.10083 27.1601 2.972 27.0313C2.84316 26.9024 2.77078 26.7277 2.77078 26.5455V22.5077C2.77078 22.3255 2.84316 22.1508 2.972 22.0219C3.10083 21.8931 3.27557 21.8207 3.45778 21.8207C3.63998 21.8207 3.81472 21.8931 3.94356 22.0219C4.0724 22.1508 4.14478 22.3255 4.14478 22.5077V26.5455ZM12.1283 24.5209C12.1275 24.7958 12.0179 25.0592 11.8235 25.2536C11.6291 25.448 11.3657 25.5576 11.0908 25.5584H8.84708C8.57214 25.5577 8.30865 25.4482 8.11425 25.2538C7.91984 25.0593 7.81034 24.7958 7.80968 24.5209V24.3921C7.81037 24.1172 7.91988 23.8537 8.11428 23.6593C8.30869 23.4649 8.57215 23.3554 8.84708 23.3547H11.0903C11.3652 23.3554 11.6287 23.4649 11.8231 23.6593C12.0176 23.8537 12.1271 24.1172 12.1278 24.3921L12.1283 24.5209ZM8.35478 32.6473C10.2049 32.7881 12.0466 32.2819 13.5648 31.2151V48.1992C13.4932 48.6699 13.2659 49.1031 12.9192 49.4295C12.5726 49.7559 12.1266 49.9568 11.6524 50H9.88238C9.49007 49.9548 9.1249 49.7771 8.84717 49.4964C8.56944 49.2156 8.39575 48.8486 8.35478 48.4558C8.35478 48.4558 8.36798 32.6606 8.35478 32.6473ZM17.4686 24.4847C17.4686 28.2212 21.0699 31.5639 25.2427 31.2422C26.5001 31.202 27.7277 30.8495 28.8149 30.2165C29.9021 29.5835 30.8147 28.6899 31.4704 27.6162C32.0904 26.6807 32.0436 26.42 32.0436 24.2473C32.0436 22.6419 32.2196 22.0732 31.4955 21.3021C29.8762 19.5776 27.9835 17.8111 25.2427 17.7111C21.0602 17.5585 17.4686 20.7482 17.4686 24.4847ZM28.7967 22.5077C28.7967 22.3255 28.8691 22.1508 28.9979 22.0219C29.1267 21.8931 29.3015 21.8207 29.4837 21.8207C29.6659 21.8207 29.8406 21.8931 29.9695 22.0219C30.0983 22.1508 30.1707 22.3255 30.1707 22.5077V26.5455C30.1707 26.7277 30.0983 26.9024 29.9695 27.0313C29.8406 27.1601 29.6659 27.2325 29.4837 27.2325C29.3015 27.2325 29.1267 27.1601 28.9979 27.0313C28.8691 26.9024 28.7967 26.7277 28.7967 26.5455V22.5077ZM21.0577 24.3921C21.0584 24.1172 21.1678 23.8538 21.3622 23.6594C21.5565 23.465 21.8199 23.3555 22.0948 23.3547H24.338C24.6129 23.3554 24.8764 23.4649 25.0708 23.6593C25.2652 23.8537 25.3747 24.1172 25.3754 24.3921V24.5209C25.3747 24.7958 25.2652 25.0593 25.0708 25.2538C24.8764 25.4482 24.6129 25.5577 24.338 25.5584H22.0948C21.8199 25.5576 21.5564 25.448 21.3621 25.2536C21.1677 25.0592 21.0581 24.7958 21.0573 24.5209L21.0577 24.3921ZM24.7177 48.4558C24.7177 49.1691 23.6571 50 22.9306 50H21.1606C20.7214 49.9446 20.3173 49.7313 20.0237 49.4C19.7301 49.0687 19.567 48.6419 19.5648 48.1992V31.2151C21.0616 32.2811 22.8851 32.788 24.7174 32.6473C24.714 32.6656 24.7177 48.4558 24.7177 48.4558Z" fill="#1D1D1F"/>
</g>
<defs>
<clipPath id="clip0_1_23">
<rect width="32" height="54" fill="white" transform="translate(0.564453)"/>
</clipPath>
</defs>
</svg>
