<svg width="46" height="54" viewBox="0 0 46 54" fill="none" xmlns="http://www.w3.org/2000/svg">
<g id="airpods_compare_light__cmuvdvbxj1w2_large.svg" clip-path="url(#clip0_1_54)">
<path id="Vector" d="M14.6895 13H5.68945C4.2313 13.0017 2.83337 13.5818 1.80229 14.6128C0.771223 15.6439 0.1912 17.0418 0.189453 18.5L0.189453 44.5C0.191279 45.9581 0.771328 47.356 1.80238 48.3871C2.83344 49.4181 4.23132 49.9982 5.68945 50H14.6895C16.1476 49.9982 17.5455 49.4181 18.5765 48.3871C19.6076 47.356 20.1876 45.9581 20.1895 44.5V18.5C20.1877 17.0418 19.6077 15.6439 18.5766 14.6128C17.5455 13.5818 16.1476 13.0017 14.6895 13ZM18.1895 44.5C18.1883 45.4279 17.8192 46.3175 17.1631 46.9736C16.507 47.6298 15.6174 47.9989 14.6895 48H5.68945C4.76154 47.9989 3.87194 47.6298 3.21581 46.9736C2.55967 46.3175 2.19056 45.4279 2.18945 44.5V18.5C2.19056 17.5721 2.55967 16.6825 3.21581 16.0264C3.87194 15.3702 4.76154 15.0011 5.68945 15H14.6895C15.6174 15.0011 16.507 15.3702 17.1631 16.0264C17.8192 16.6825 18.1883 17.5721 18.1895 18.5V44.5ZM44.1895 36.5H45.1895V42.5H44.1895V36.5ZM32.1895 13H38.1895V14H32.1895V13ZM44.1895 28.5H45.1895V34.5H44.1895V28.5ZM32.1895 49H38.1895V50H32.1895V49ZM26.1895 34.5H25.1895V28.5H26.1895V34.5ZM26.1895 26.5H25.1895V20.5H26.1895V26.5ZM26.1895 42.5H25.1895V36.5H26.1895V42.5ZM40.1895 14.05V13.0253C41.555 13.1512 42.8244 13.7822 43.7492 14.7948C44.6739 15.8074 45.1875 17.1287 45.1895 18.5H44.1895C44.1874 17.396 43.7781 16.3315 43.0401 15.5104C42.302 14.6893 41.287 14.1693 40.1895 14.05ZM44.1895 44.5H45.1895C45.1875 45.8713 44.6739 47.1926 43.7492 48.2052C42.8244 49.2178 41.555 49.8488 40.1895 49.9747V48.95C41.287 48.8307 42.302 48.3107 43.0401 47.4896C43.7781 46.6685 44.1874 45.604 44.1895 44.5ZM30.1895 13.0253V14.05C29.0919 14.1693 28.0769 14.6893 27.3388 15.5104C26.6008 16.3315 26.1915 17.396 26.1895 18.5H25.1895C25.1914 17.1287 25.705 15.8074 26.6297 14.7948C27.5545 13.7822 28.8239 13.1512 30.1895 13.0253ZM30.1895 48.95V49.9751C28.8238 49.8492 27.5544 49.2181 26.6296 48.2054C25.7048 47.1928 25.1913 45.8714 25.1895 44.5H26.1895C26.1915 45.604 26.6008 46.6685 27.3388 47.4896C28.0769 48.3107 29.0919 48.8307 30.1895 48.95ZM44.1895 20.5H45.1895V26.5H44.1895V20.5Z" fill="#1D1D1F"/>
</g>
<defs>
<clipPath id="clip0_1_54">
<rect width="45" height="54" fill="white" transform="translate(0.189453)"/>
</clipPath>
</defs>
</svg>
