<svg width="35" height="54" viewBox="0 0 35 54" fill="none" xmlns="http://www.w3.org/2000/svg">
<g id="airpods_3gen_light__6r7zooyk4lua_large.svg" clip-path="url(#clip0_1_31)">
<path id="Vector" d="M6.76331 40.1211L6.76871 40.1239C6.76141 40.1245 6.75491 40.1187 6.76331 40.1211ZM6.77191 40.1232L6.76871 40.1239L6.77191 40.1277L6.77541 40.1371L6.78291 40.1138L6.77541 40.1211L6.77191 40.1232ZM15.8376 31.7341C15.7043 33.1192 15.0919 34.4144 14.1059 35.3964C14.0625 35.4464 14.025 35.4889 13.9931 35.5264C13.4375 36.0768 12.8362 36.5791 12.1957 37.0279L12.193 37.0313L12.1645 37.0507C11.9235 37.2269 11.6733 37.3902 11.415 37.54L11.1123 37.7087C10.612 37.9489 10.0948 38.152 9.56471 38.3165L9.52621 38.3318C9.28623 38.4131 9.03809 38.468 8.78621 38.4954C8.59209 38.528 8.39609 38.5482 8.19941 38.5559C7.65872 38.599 7.11587 38.6084 6.57401 38.584C5.46599 38.426 4.43265 37.9334 3.61221 37.1721C3.1096 36.7858 2.67183 36.3217 2.31541 35.7975C2.02441 35.4076 1.77895 34.9857 1.58381 34.54C1.50346 34.3525 1.43526 34.16 1.37961 33.9637C1.24454 33.5328 1.17276 33.0845 1.16651 32.633C1.10111 31.9724 1.23569 31.3074 1.55281 30.7242C1.74102 30.3883 1.95195 30.0656 2.18411 29.7584C2.17241 29.7566 2.15751 29.7513 2.14601 29.7497C3.13674 28.3667 4.40603 27.2064 5.87221 26.3435C7.33445 25.4216 9.03288 24.944 10.7613 24.9687C11.538 24.9842 12.8713 25.3635 14.5913 27.387C15.487 28.6531 15.9264 30.1857 15.8376 31.7341ZM5.74831 34.8518C5.58813 34.4423 5.38212 34.0522 5.13421 33.6891C4.88632 33.3315 4.59694 33.0045 4.27211 32.715C3.79451 32.3436 3.10681 32.151 2.95681 32.6467C2.90106 33.0318 2.92447 33.4242 3.02561 33.7999C3.12674 34.1756 3.30348 34.5267 3.54501 34.8318C3.74667 35.1738 4.01629 35.471 4.33722 35.7048C4.65816 35.9386 5.0236 36.1042 5.41101 36.1913C5.88841 36.23 5.98501 35.4471 5.74831 34.8518ZM13.293 28.1771L13.243 28.1086C13.0944 27.9065 12.8718 27.7715 12.624 27.733C12.3761 27.6945 12.1231 27.7557 11.9202 27.9031L9.61501 29.5886C9.41297 29.7372 9.27795 29.9598 9.23945 30.2076C9.20094 30.4555 9.26208 30.7085 9.40951 30.9114L9.45951 30.9798C9.60812 31.1818 9.83066 31.3169 10.0785 31.3554C10.3264 31.3939 10.5794 31.3327 10.7823 31.1853L13.0875 29.5C13.2896 29.3514 13.4247 29.1288 13.4632 28.8809C13.5017 28.633 13.4405 28.38 13.293 28.1771ZM6.41501 48.5853C6.43947 48.9561 6.5992 49.3049 6.8639 49.5657C7.12859 49.8265 7.47981 49.981 7.85091 50H9.47251C9.87929 49.9511 10.2549 49.7575 10.5308 49.4546C10.8066 49.1516 10.9643 48.7596 10.975 48.35V39.2355C9.51821 39.7868 7.9726 40.0659 6.41501 40.0592C6.41361 40.092 6.41501 48.1706 6.41501 48.5853ZM28.0613 40.1239C28.0686 40.1245 28.0751 40.1187 28.0667 40.1211L28.0613 40.1239ZM28.0546 40.1211L28.0471 40.1138L28.0546 40.1371L28.0581 40.1277L28.0613 40.1239L28.0581 40.1232L28.0546 40.1211ZM33.6635 32.6326C33.6573 33.0841 33.5855 33.5324 33.4504 33.9633C33.3948 34.1596 33.3266 34.3521 33.2462 34.5396C33.0512 34.9852 32.8059 35.4072 32.515 35.7971C32.1586 36.3213 31.7208 36.7854 31.2182 37.1717C30.3978 37.933 29.3644 38.4256 28.2564 38.5836C27.7146 38.608 27.1717 38.5986 26.631 38.5555C26.4343 38.5478 26.2383 38.5276 26.0442 38.495C25.7923 38.4676 25.5442 38.4127 25.3042 38.3314L25.2657 38.3161C24.7357 38.1516 24.2184 37.9485 23.7181 37.7083L23.415 37.54C23.1568 37.3904 22.9067 37.2274 22.6657 37.0514L22.6372 37.032L22.6345 37.0286C21.994 36.5798 21.3927 36.0775 20.8371 35.5271C20.8052 35.4893 20.7677 35.4464 20.7243 35.3971C19.7383 34.4151 19.1259 33.1199 18.9926 31.7348C18.9038 30.1863 19.3433 28.6534 20.2392 27.3873C21.9592 25.3638 23.2922 24.9845 24.0692 24.969C25.7976 24.9443 27.4961 25.4219 28.9583 26.3438C30.4245 27.2067 31.6938 28.367 32.6845 29.75C32.673 29.7516 32.6581 29.7569 32.6464 29.7587C32.8786 30.0659 33.0895 30.3886 33.2777 30.7245C33.5945 31.3075 33.7289 31.9723 33.6635 32.6326ZM21.7425 29.5L24.0479 31.1855C24.2508 31.3329 24.5038 31.3941 24.7517 31.3556C24.9996 31.3171 25.2221 31.182 25.3707 30.98L25.4207 30.9116C25.5682 30.7086 25.6293 30.4555 25.5908 30.2077C25.5522 29.9598 25.4171 29.7372 25.215 29.5886L22.9095 27.9031C22.7066 27.7557 22.4536 27.6945 22.2057 27.733C21.9579 27.7715 21.7353 27.9065 21.5867 28.1086L21.5367 28.1771C21.3892 28.38 21.3281 28.6331 21.3667 28.881C21.4052 29.1289 21.5403 29.3514 21.7425 29.5ZM31.8732 32.6469C31.7232 32.1512 31.0355 32.3438 30.5579 32.7152C30.2331 33.0047 29.9437 33.3317 29.6958 33.6893C29.4479 34.0524 29.2419 34.4425 29.0817 34.852C28.8452 35.4473 28.9417 36.2305 29.419 36.192C29.8065 36.1048 30.172 35.9391 30.4929 35.7052C30.8138 35.4712 31.0834 35.174 31.285 34.8318C31.5265 34.5267 31.7033 34.1756 31.8044 33.7999C31.9056 33.4242 31.929 33.032 31.8732 32.6469ZM28.415 40.0592C26.8574 40.0659 25.3118 39.7868 23.855 39.2355V48.35C23.8657 48.7596 24.0234 49.1516 24.2992 49.4546C24.5751 49.7575 24.9507 49.9511 25.3575 50H26.9791C27.3426 49.9599 27.682 49.7985 27.9425 49.5418C28.2031 49.2851 28.3695 48.9482 28.415 48.5853V40.0592Z" fill="#1D1D1F"/>
</g>
<defs>
<clipPath id="clip0_1_31">
<rect width="34" height="54" fill="white" transform="translate(0.414062)"/>
</clipPath>
</defs>
</svg>
