<svg width="40" height="54" viewBox="0 0 40 54" fill="none" xmlns="http://www.w3.org/2000/svg">
<g id="airpods_pro_light__ets5a19rt3au_large.svg" clip-path="url(#clip0_1_39)">
<path id="Vector" d="M27.7985 39.8358C28.6495 40.0617 29.5274 40.1705 30.4078 40.1591V48.5869C30.381 48.9428 30.2313 49.2784 29.9845 49.5361C29.7376 49.7939 29.4088 49.9579 29.0544 50H27.5062C27.108 49.9565 26.7405 49.7655 26.476 49.4647C26.2116 49.1639 26.0692 48.775 26.0771 48.3745V39.1845C26.6363 39.4384 27.2113 39.656 27.7985 39.8358ZM26.0771 38.0887C24.8229 37.4494 23.6997 36.5806 22.7657 35.5273C21.8268 34.5043 21.2608 33.1942 21.1596 31.8094C21.1172 30.6335 21.3944 29.4682 21.9619 28.4374C22.4462 27.6461 23.1124 26.9818 23.905 26.4996C24.6977 26.0175 25.594 25.7315 26.5194 25.6653C26.5654 25.6653 26.6116 25.6661 26.6582 25.6676C28.0501 25.7136 31.4134 26.0264 34.4341 30.0266C34.2707 30.0328 34.1078 30.0473 33.946 30.0701C33.1356 30.2064 32.3631 30.5124 31.6792 30.9681C30.9953 31.4238 30.4154 32.0188 29.9775 32.7142C29.1389 34.0086 28.7085 35.5251 28.7421 37.067C28.75 37.2948 28.7788 37.5215 28.828 37.7441C28.9404 38.2346 29.1436 38.6997 29.4273 39.1154C28.9746 39.082 28.5266 39.0029 28.0899 38.8792C27.3982 38.6719 26.725 38.4074 26.0771 38.0887ZM27.1427 31.7557C27.3357 31.8883 27.5686 31.9503 27.8021 31.9312C28.0355 31.9121 28.2552 31.813 28.4242 31.6508L28.4822 31.5784C28.5884 31.4654 28.6664 31.3289 28.7099 31.1801C28.7533 31.0312 28.7609 30.8742 28.7321 30.7218C28.7033 30.5695 28.6389 30.4261 28.5441 30.3033C28.4494 30.1806 28.3269 30.082 28.1868 30.0156L26.6768 29.0438C26.4663 28.897 26.2127 28.8253 25.9565 28.8401C25.7004 28.8549 25.4567 28.9554 25.2646 29.1255L25.1797 29.2079C25.0917 29.3155 25.0278 29.4408 24.9925 29.5753C24.9572 29.7098 24.9511 29.8503 24.9748 29.9873C24.9986 30.1243 25.0514 30.2546 25.1299 30.3694C25.2084 30.4841 25.3106 30.5807 25.4297 30.6525L27.1427 31.7557ZM38.8772 35.9512C38.8384 36.1531 38.7859 36.3521 38.7201 36.5469C38.5593 37.009 38.3458 37.4511 38.0837 37.8643C37.7691 38.4195 37.368 38.921 36.8957 39.35C36.5068 39.7366 36.0433 40.0399 35.5333 40.2413C35.0233 40.4427 34.4776 40.538 33.9296 40.5215C33.3002 40.5229 32.6753 40.4164 32.082 40.2066C32.0078 40.1719 31.9497 40.1376 31.8799 40.103C31.5981 39.9656 31.325 39.811 31.0624 39.6398C30.8441 39.4976 30.6387 39.3366 30.4486 39.1586C30.4342 39.1449 30.4218 39.1311 30.4079 39.1173C29.9769 38.6951 29.6806 38.1547 29.5565 37.5643C29.5259 37.429 29.5056 37.2916 29.4957 37.1532C29.3391 35.3311 30.4334 31.4298 34.0723 30.8091C34.3005 30.769 34.5318 30.7482 34.7636 30.747C34.831 30.747 34.9026 30.7581 34.9718 30.7623C35.237 30.7743 35.4994 30.8222 35.7518 30.9047C35.7992 30.9212 35.8407 30.9481 35.8872 30.9659C36.1348 31.0583 36.3746 31.1706 36.6042 31.3017C37.3436 31.7279 37.9543 32.3457 38.372 33.09C38.6363 33.5786 38.8162 34.1083 38.9043 34.6568C38.9643 35.0869 38.9551 35.5239 38.8772 35.9512ZM37.5735 35.1712C37.4248 34.6825 36.8617 34.6932 36.5111 35.1712L34.7687 37.5726C34.502 38.0719 34.7038 38.6776 35.1713 38.635H35.1724C35.9064 38.4161 36.5441 37.9539 36.9805 37.3244C37.4169 36.6949 37.626 35.9354 37.5735 35.1712ZM10.1235 40.1589V48.5867C10.1502 48.9427 10.2999 49.2783 10.5468 49.5361C10.7937 49.7939 11.1225 49.9579 11.477 50H13.0251C13.4233 49.9565 13.7908 49.7656 14.0552 49.4647C14.3197 49.1639 14.462 48.775 14.4542 48.3745V39.1845C13.895 39.4383 13.32 39.6557 12.7329 39.8354C11.8819 40.0614 11.0039 40.1701 10.1235 40.1589ZM18.5692 28.4372C19.1366 29.468 19.4139 30.6333 19.3715 31.8092C19.2703 33.1941 18.7045 34.5042 17.7657 35.5273C16.8318 36.5806 15.7086 37.4495 14.4544 38.0887C13.8065 38.4073 13.1332 38.6716 12.4415 38.8787C12.004 39.0026 11.555 39.0818 11.1015 39.115C11.3867 38.6999 11.5908 38.2346 11.7032 37.7436C11.7523 37.521 11.7811 37.2943 11.7891 37.0665C11.8225 35.5247 11.3921 34.0085 10.5537 32.7142C10.1158 32.0188 9.53601 31.4238 8.85219 30.9681C8.16838 30.5125 7.39601 30.2064 6.58568 30.07C6.42382 30.0472 6.26091 30.0327 6.09758 30.0265C9.11828 26.0265 12.4816 25.7135 13.8735 25.6675C13.9202 25.666 13.9661 25.6652 14.0123 25.6652C14.9376 25.7315 15.8338 26.0176 16.6263 26.4997C17.4189 26.9819 18.0849 27.6459 18.5692 28.4372ZM15.3519 29.2072L15.267 29.1248C15.0749 28.9547 14.8312 28.8542 14.575 28.8394C14.3189 28.8246 14.0652 28.8963 13.8548 29.0431L12.3448 30.0149C12.2047 30.0813 12.0822 30.1799 11.9874 30.3026C11.8927 30.4254 11.8283 30.5688 11.7994 30.7211C11.7706 30.8735 11.7783 31.0305 11.8217 31.1794C11.8651 31.3282 11.9431 31.4647 12.0493 31.5777L12.1074 31.6501C12.2763 31.8123 12.496 31.9114 12.7295 31.9305C12.9629 31.9496 13.1958 31.8876 13.3889 31.755L15.1027 30.6518C15.2216 30.5799 15.3236 30.4833 15.402 30.3686C15.4803 30.2539 15.5331 30.1236 15.5567 29.9867C15.5804 29.8498 15.5743 29.7094 15.539 29.5751C15.5037 29.4407 15.4398 29.3148 15.3519 29.2072ZM10.1235 39.1172C10.1096 39.131 10.0972 39.1447 10.0828 39.1584C9.89266 39.3365 9.68727 39.4975 9.46898 39.6396C9.2063 39.8108 8.93324 39.9655 8.65138 40.1028C8.58138 40.1374 8.52358 40.1717 8.44938 40.2064C7.85603 40.4162 7.23111 40.5227 6.60178 40.5213C6.05373 40.5378 5.50807 40.4425 4.9981 40.2411C4.48813 40.0397 4.02455 39.7365 3.63568 39.35C3.16325 38.9209 2.76219 38.4193 2.44758 37.864C2.18547 37.4508 1.97192 37.0087 1.81118 36.5466C1.74535 36.3518 1.69286 36.1528 1.65408 35.9509C1.57611 35.5236 1.56696 35.0866 1.62698 34.6564C1.71511 34.108 1.8951 33.5785 2.15938 33.09C2.57721 32.3458 3.18807 31.7281 3.92758 31.302C4.15694 31.171 4.39652 31.0588 4.64398 30.9665C4.69078 30.9486 4.73248 30.9216 4.77998 30.905C5.03234 30.8225 5.29473 30.7746 5.55998 30.7626C5.62918 30.7584 5.70078 30.7473 5.76818 30.7473C5.99995 30.7485 6.2312 30.7693 6.45948 30.8094C10.0984 31.4301 11.1927 35.3314 11.0361 37.1535C11.0262 37.2919 11.0058 37.4293 10.9753 37.5646C10.851 38.1551 10.5546 38.695 10.1235 39.1172ZM5.76268 37.5726L4.02028 35.1714C3.66968 34.6934 3.10658 34.6827 2.95788 35.1714C2.90747 35.5459 2.93224 35.9268 3.03075 36.2916C3.12925 36.6565 3.29951 36.998 3.53158 37.2963C3.72825 37.6327 3.99193 37.9251 4.30628 38.1554C4.62063 38.3857 4.97893 38.5489 5.35898 38.635C5.82658 38.6776 6.02938 38.0719 5.76268 37.5726Z" fill="#1D1D1F"/>
</g>
<defs>
<clipPath id="clip0_1_39">
<rect width="39" height="54" fill="white" transform="translate(0.765625)"/>
</clipPath>
</defs>
</svg>
