<svg width="35" height="54" viewBox="0 0 35 54" fill="none" xmlns="http://www.w3.org/2000/svg">
<g id="airpods_max_light__cvaaddhgazqu_large.svg" clip-path="url(#clip0_1_47)">
<path id="Vector" d="M28.238 19.9239C25.1274 17.309 21.1604 15.9356 17.0989 16.0675C13.0812 15.9717 9.16403 17.33 6.06817 19.8926C7.33408 18.1515 8.99241 16.7331 10.9087 15.7524C12.8251 14.7718 14.9455 14.2564 17.0982 14.2481L17.1306 14.2471L17.1629 14.2481C19.321 14.2791 21.4429 14.8073 23.3637 15.7917C25.2845 16.7761 26.9525 18.1901 28.238 19.9239ZM34.1288 29.3754C34.1265 29.2536 34.1223 29.1341 34.118 29.0148L31.994 29.1264C31.997 29.4019 31.9951 29.6101 32.0059 29.7405C32.0209 29.9256 32.0615 29.9696 32.2132 29.9605C32.3649 29.9514 32.4978 29.948 32.4978 29.948C32.4978 29.948 32.5008 30.6197 32.5008 31.3933C32.4828 31.6253 32.5536 31.8555 32.6989 32.0374C32.6736 32.0235 32.6529 32.0114 32.6259 31.9967C32.2736 31.8486 31.8827 31.8192 31.5123 31.9129C31.2296 31.9993 30.9568 32.115 30.6982 32.258C30.8092 33.0117 30.6506 33.7804 30.2502 34.4286C29.5062 35.9412 25.7763 43.9478 23.9271 46.5123C23.5226 47.153 22.994 47.7063 22.3723 48.1394C22.3924 48.3888 22.431 48.6364 22.4878 48.8801C22.5765 49.1566 22.7377 49.4043 22.9547 49.5973C23.1717 49.7902 23.4365 49.9215 23.7215 49.9774C25.2502 50.2284 26.6724 48.3409 27.2179 47.535C27.7634 46.7291 28.6739 45.2701 30.5779 41.7573C32.1773 38.8065 33.8263 35.1737 33.7519 33.8348C33.7239 33.3994 33.5955 32.9763 33.3769 32.5988C33.2754 32.4455 33.1442 32.3142 32.991 32.2127C33.0307 32.2223 33.0714 32.2278 33.1123 32.229C33.2655 32.229 33.7329 32.1299 33.7329 31.4151C33.7329 30.7003 33.7159 29.8827 33.7159 29.8827C33.7159 29.8827 33.7483 29.8801 33.9464 29.8708C34.0981 29.8637 34.1311 29.7838 34.1308 29.5656C34.1306 29.5086 34.1306 29.445 34.1288 29.3754ZM4.22276 22.0283C4.51596 21.427 4.7683 20.8067 4.97807 20.1715C6.46346 17.1633 11.2055 13.4063 17.0975 13.4063L17.1306 13.4053L17.1632 13.4063C23.0554 13.4063 27.7972 17.1633 29.2832 20.1715C29.4927 20.8067 29.745 21.4271 30.0382 22.0283C31.1544 23.9374 31.814 26.0787 31.9656 28.285L34.0703 28.1744C33.9017 25.5058 33.0757 22.9203 31.6661 20.6481C31.3751 20.2468 31.0615 19.8624 30.7269 19.4968C29.2479 17.2447 27.2365 15.392 24.8706 14.1028C22.5048 12.8135 19.8577 12.1274 17.1635 12.1053L17.1306 12.1061L17.098 12.1053C14.4037 12.1273 11.7565 12.8134 9.39062 14.1026C7.02477 15.3919 5.01332 17.2446 3.53437 19.4968C3.19949 19.8623 2.88584 20.2467 2.59497 20.6481C1.18501 22.9207 0.359016 25.5067 0.190565 28.1758L2.29537 28.2863C2.44673 26.0796 3.10638 23.9378 4.22276 22.0283ZM11.4569 37.622C10.3491 35.3849 9.08868 33.2266 7.68467 31.1625C7.34712 30.772 6.88974 30.5044 6.38399 30.4014C5.87825 30.2984 5.35263 30.3658 4.88927 30.5932C4.76178 30.6857 4.64101 30.7872 4.52786 30.8968C3.87697 31.6638 3.97267 32.5638 4.58387 33.8068C5.32787 35.3194 9.05776 43.326 10.907 45.8906C11.8246 47.1629 12.5561 47.8944 13.697 47.7952C14.0559 47.7651 14.3935 47.6124 14.6532 47.3628C15.0103 46.8898 15.1989 46.311 15.1891 45.7184C15.0996 44.8502 14.8111 44.0144 14.346 43.276C14.2217 43.0277 11.928 38.5891 11.4569 37.622ZM10.2719 46.512C8.42266 43.9476 4.69256 35.941 3.94867 34.4284C3.5482 33.7803 3.3895 33.0115 3.50057 32.2578C3.24187 32.1148 2.969 31.9992 2.68637 31.9127C2.32752 31.8251 1.95042 31.8503 1.60637 31.9847C1.71807 31.8084 1.77165 31.6015 1.75956 31.3932C1.75956 30.6195 1.76257 29.9479 1.76257 29.9479C1.76257 29.9479 1.89577 29.951 2.04747 29.9603C2.19917 29.9696 2.23957 29.9257 2.25477 29.7403C2.26537 29.6103 2.26357 29.4023 2.26647 29.1274L0.142465 29.0158C0.138065 29.1348 0.133865 29.2538 0.131665 29.3751C0.129765 29.4751 0.131665 29.5628 0.132865 29.6358C0.136265 29.8014 0.182865 29.8642 0.314365 29.8703C0.512365 29.8796 0.544965 29.8822 0.544965 29.8822C0.544965 29.8822 0.527665 30.7 0.527665 31.4149C0.527665 32.1298 0.995065 32.2288 1.14827 32.2288C1.15826 32.2288 1.17347 32.2272 1.18737 32.2261C1.04292 32.3257 0.918944 32.4522 0.822165 32.5986C0.603661 32.9762 0.475358 33.3992 0.447265 33.8346C0.372765 35.1735 2.02187 38.8063 3.62127 41.7571C5.52517 45.2699 6.43556 46.7288 6.98127 47.5347C7.52697 48.3406 8.94886 50.2282 10.4776 49.9772C10.7625 49.9213 11.0273 49.7901 11.2442 49.5971C11.4612 49.4041 11.6224 49.1565 11.7111 48.88C11.7679 48.6363 11.8066 48.3887 11.8267 48.1393C11.2049 47.7062 10.6763 47.1528 10.2719 46.512ZM29.6152 33.8065C30.2264 32.5638 30.3221 31.6638 29.6712 30.8965C29.558 30.7869 29.4372 30.6855 29.3098 30.5929C28.8464 30.3655 28.3207 30.2981 27.8149 30.4011C27.3092 30.5041 26.8518 30.7717 26.5142 31.1622C25.1103 33.2264 23.8499 35.3846 22.7421 37.6217C22.2709 38.5888 19.9772 43.0274 19.8533 43.2753C19.3882 44.0138 19.0997 44.8496 19.0102 45.7178C19.0003 46.3104 19.189 46.8893 19.5463 47.3622C19.8058 47.6119 20.1435 47.7646 20.5024 47.7946C21.6432 47.8938 22.3745 47.1624 23.2924 45.89C25.1412 43.3257 28.8713 35.3191 29.6152 33.8065Z" fill="#1D1D1F"/>
</g>
<defs>
<clipPath id="clip0_1_47">
<rect width="34" height="54" fill="white" transform="translate(0.130859)"/>
</clipPath>
</defs>
</svg>
