<svg width="33" height="54" viewBox="0 0 33 54" fill="none" xmlns="http://www.w3.org/2000/svg">
<g id="apple_music_light__fexraacz3dme_large.svg" clip-path="url(#clip0_1_61)">
<path id="Vector" d="M25.2327 18H6.94694C3.17554 18 0.0898438 21.0857 0.0898438 24.8571V43.1428C0.0898438 46.9143 3.17554 50 6.94694 50H25.2326C29.0041 50 32.0898 46.9143 32.0898 43.1429V24.8571C32.0898 21.0857 29.0041 18 25.2327 18ZM22.8991 39.6593C22.8217 40.0006 22.6806 40.3216 22.4629 40.6108C22.246 40.8991 21.9679 41.1354 21.6437 41.3125C21.3156 41.492 20.9713 41.5942 20.6038 41.6628C19.9139 41.7916 19.4417 41.8207 18.9982 41.7381C18.5703 41.6584 18.2077 41.4762 17.9178 41.23C17.4882 40.865 17.2203 40.3721 17.1618 39.8568C17.0933 39.2531 17.3103 38.6081 17.7998 38.1329C18.0468 37.8931 18.3571 37.7034 18.7712 37.5546C19.2046 37.3988 19.6829 37.3059 20.4181 37.1685C20.6118 37.1324 20.8054 37.0962 20.9992 37.06C21.2539 37.0125 21.4723 36.9521 21.6484 36.7528C21.8259 36.552 21.8286 36.3113 21.8286 36.069L21.8287 29.9571C21.8287 29.4897 21.6024 29.3622 21.1206 29.448C20.7761 29.5102 13.3787 30.8921 13.3787 30.8921C12.9614 30.9854 12.8148 31.1118 12.8148 31.5913L12.815 40.5468C12.815 40.8979 12.7952 41.2095 12.7154 41.5612C12.638 41.9026 12.4969 42.2236 12.2792 42.5127C12.0623 42.801 11.7841 43.0372 11.46 43.2144C11.1319 43.3939 10.7876 43.5012 10.4201 43.5698C9.73014 43.6987 9.25804 43.7278 8.81444 43.6451C8.38664 43.5654 8.02394 43.3781 7.73414 43.1319C7.30454 42.7669 7.05424 42.274 6.99574 41.7587C6.92714 41.155 7.12664 40.51 7.61624 40.0348C7.86314 39.7951 8.17334 39.6053 8.58754 39.4565C9.02104 39.3007 9.49934 39.2078 10.2344 39.0704C10.4281 39.0343 10.6218 38.9981 10.8155 38.9619C11.0702 38.9143 11.2887 38.8539 11.4647 38.6546C11.6408 38.4552 11.6611 38.2163 11.6611 37.9755C11.6611 36.0805 11.6611 27.662 11.6611 27.662C11.6611 27.523 11.6741 27.4305 11.6818 27.384C11.7173 27.1669 11.8114 26.9808 11.9811 26.8488C12.1221 26.7391 12.3036 26.6635 12.5359 26.6178L12.5393 26.6171L21.4385 24.9541C21.5156 24.9395 22.1589 24.8337 22.2312 24.8279C22.7122 24.7894 22.9823 25.0819 22.9823 25.5568L22.9826 38.6402C22.9827 38.9913 22.9788 39.3075 22.8991 39.6593Z" fill="#1D1D1F"/>
</g>
<defs>
<clipPath id="clip0_1_61">
<rect width="32" height="54" fill="white" transform="translate(0.0898438)"/>
</clipPath>
</defs>
</svg>
