<svg width="14" height="17" viewBox="0 0 14 17" fill="none" xmlns="http://www.w3.org/2000/svg">
<path d="M13.0726 5.68253C12.5517 6.00144 12.1202 6.44728 11.8186 6.97834C11.5169 7.50941 11.3549 8.10832 11.3478 8.71903C11.3498 9.40639 11.5535 10.078 11.9335 10.6508C12.3135 11.2236 12.8532 11.6723 13.4857 11.9413C13.2363 12.7459 12.8672 13.5084 12.3909 14.2031C11.7093 15.1843 10.9966 16.1654 9.91217 16.1654C8.82777 16.1654 8.54887 15.5354 7.29917 15.5354C6.08047 15.5354 5.64667 16.1861 4.65517 16.1861C3.66367 16.1861 2.97177 15.2772 2.17647 14.1618C1.12594 12.5993 0.548582 10.7668 0.513672 8.88423C0.513672 5.78583 2.52767 4.14373 4.51057 4.14373C5.56407 4.14373 6.44197 4.83563 7.10297 4.83563C7.73297 4.83563 8.71417 4.10233 9.91217 4.10233C10.5281 4.08644 11.1386 4.22225 11.6897 4.49781C12.2408 4.77337 12.7157 5.18023 13.0726 5.68253ZM9.34417 2.79073C9.87227 2.16949 10.1712 1.38586 10.1911 0.570732C10.192 0.463274 10.1816 0.35602 10.1601 0.250732C9.25293 0.339346 8.41408 0.771707 7.81557 1.45913C7.28238 2.05562 6.97217 2.81832 6.93767 3.61763C6.93807 3.71484 6.94846 3.81175 6.96867 3.90683C7.04019 3.92035 7.11279 3.92728 7.18557 3.92753C7.60365 3.89427 8.01059 3.77634 8.38167 3.58091C8.75275 3.38549 9.08022 3.11665 9.34417 2.79073Z" fill="black" fill-opacity="0.8"/>
</svg>
