<svg width="13" height="27" viewBox="0 0 13 27" fill="none" xmlns="http://www.w3.org/2000/svg">
<g id="Frame" clip-path="url(#clip0_1_315)">
<g id="Group">
<path id="Vector" d="M1.2897 20.5347C1.02204 20.5347 0.793238 20.4419 0.603287 20.2562C0.413335 20.0706 0.318359 19.8439 0.318359 19.5763C0.318359 19.3086 0.417652 19.0755 0.616238 18.8769L5.84854 13.6576L0.616238 8.43822C0.417652 8.23963 0.318359 8.00651 0.318359 7.73885C0.318359 7.47119 0.413335 7.24454 0.603287 7.05891C0.793238 6.87327 1.02204 6.78046 1.2897 6.78046C1.54009 6.78046 1.76458 6.87112 1.96317 7.05243L7.86893 12.9323C8.07615 13.1222 8.17976 13.364 8.17976 13.6576C8.17976 13.9339 8.07615 14.1756 7.86893 14.3828L1.96317 20.2627C1.78185 20.444 1.55736 20.5347 1.2897 20.5347Z" fill="#0066CC"/>
</g>
</g>
<defs>
<clipPath id="clip0_1_315">
<rect width="12.0126" height="26.5263" fill="white" transform="matrix(1 0 0 -1 0.320312 26.8948)"/>
</clipPath>
</defs>
</svg>
