<svg width="15" height="44" viewBox="0 0 15 44" fill="none" xmlns="http://www.w3.org/2000/svg">
<g id="Frame">
<path id="Vector" d="M12.2337 16.0283H11.2132C11.1038 15.2173 10.7074 14.4723 10.0959 13.9284C9.48449 13.3845 8.6984 13.0776 7.88016 13.0635C7.06192 13.0776 6.27582 13.3845 5.66437 13.9284C5.05291 14.4723 4.65656 15.2173 4.54716 16.0283H3.52716C2.96595 16.0286 2.42781 16.2517 2.0309 16.6485C1.63399 17.0452 1.41074 17.5833 1.41016 18.1445V25.86C1.41066 26.4211 1.63376 26.9591 2.0305 27.356C2.42724 27.7528 2.96521 27.976 3.52636 27.9767H12.2334C12.7946 27.9762 13.3327 27.753 13.7296 27.3562C14.1265 26.9593 14.3497 26.4212 14.3502 25.86V18.1445C14.3496 17.5834 14.1264 17.0454 13.7296 16.6486C13.3328 16.2519 12.7948 16.0288 12.2337 16.0283ZM7.88016 14.1631C8.40757 14.1745 8.91527 14.3656 9.31934 14.7048C9.72341 15.0439 9.99963 15.5108 10.1024 16.0283H5.65796C5.76068 15.5108 6.03691 15.0439 6.44097 14.7048C6.84504 14.3656 7.35275 14.1745 7.88016 14.1631ZM13.2502 25.86C13.2499 26.1296 13.1427 26.388 12.9521 26.5787C12.7615 26.7693 12.5031 26.8767 12.2336 26.8771H3.52666C3.2571 26.8766 2.99872 26.7693 2.80817 26.5786C2.61762 26.388 2.51045 26.1295 2.51016 25.86V18.1445C2.51047 17.875 2.61768 17.6166 2.80826 17.426C2.99884 17.2354 3.25723 17.1282 3.52676 17.1279H12.2338C12.5032 17.1282 12.7616 17.2355 12.9521 17.4261C13.1427 17.6166 13.2498 17.875 13.2502 18.1445V25.86Z" fill="black" fill-opacity="0.8"/>
</g>
</svg>
