<svg width="16" height="44" viewBox="0 0 16 44" fill="none" xmlns="http://www.w3.org/2000/svg">
<g id="Frame">
<path id="Vector" d="M15.2679 27.202L11.3979 23.332C12.0989 22.403 12.5199 21.251 12.5199 20C12.5199 16.94 10.0309 14.45 6.96992 14.45C3.90992 14.45 1.41992 16.94 1.41992 20C1.41992 23.061 3.90992 25.55 6.96992 25.55C8.22092 25.55 9.37292 25.129 10.3019 24.428L14.1719 28.298C14.3229 28.449 14.5219 28.526 14.7199 28.526C14.9179 28.526 15.1159 28.45 15.2679 28.298C15.5709 27.995 15.5709 27.505 15.2679 27.202ZM2.51992 20C2.51992 17.546 4.51692 15.55 6.96992 15.55C9.42392 15.55 11.4199 17.547 11.4199 20C11.4199 22.453 9.42392 24.45 6.96992 24.45C4.51592 24.45 2.51992 22.454 2.51992 20Z" fill="black" fill-opacity="0.8"/>
</g>
</svg>
